<?xml version="1.0" encoding="utf-8"?>
<!-- Generator: Adobe Illustrator 23.0.2, SVG Export Plug-In . SVG Version: 6.00 Build 0)  -->
<svg version="1.1" id="Layer_1" xmlns="http://www.w3.org/2000/svg" xmlns:xlink="http://www.w3.org/1999/xlink" x="0px" y="0px"
	 viewBox="0 0 385 68" style="enable-background:new 0 0 385 68;" xml:space="preserve">
<style type="text/css">
	.st0{fill:#E6E6E6;}
	.st1{font-family:'FjallaOne-Regular';}
	.st2{font-size:68.7238px;}
	.st3{enable-background:new    ;}
	.st4{fill:none;stroke:#E6E6E6;stroke-miterlimit:10;}
</style>
<text transform="matrix(1 0 0 1 -0.1484 64.9062)" class="st0 st1 st2">Charlie Parker</text>
<g class="st3">
	<path class="st4" d="M17.1,65.4c-0.9,0-1.9-0.1-2.9-0.2c-1-0.1-2.1-0.5-3.1-0.9c-1-0.5-2-1.1-3-2c-1-0.9-1.8-2-2.5-3.4
		s-1.3-3.1-1.7-5.2c-0.4-2.1-0.7-4.5-0.7-7.4V25.9c0-2.9,0.2-5.4,0.7-7.4c0.4-2,1-3.8,1.8-5.2C6.4,12,7.2,10.9,8.2,10
		c1-0.8,2-1.5,3-1.9c1-0.4,2.1-0.7,3.1-0.9c1-0.1,2-0.2,2.8-0.2c2.3,0,4.2,0.3,5.7,1c1.5,0.6,2.8,1.5,3.7,2.6s1.6,2.4,2,3.9
		c0.4,1.5,0.6,3,0.6,4.7c0,1.2-0.1,2.4-0.2,3.4c-0.1,1-0.3,2.2-0.6,3.4h-7v-2.9c0-3.2-0.3-5.5-1-7.1c-0.7-1.6-1.7-2.3-3.1-2.3
		c-0.8,0-1.5,0.2-2.1,0.5c-0.6,0.3-1.1,0.8-1.5,1.6c-0.4,0.8-0.7,1.7-0.9,3c-0.2,1.2-0.3,2.8-0.3,4.6v26.2c0,1.8,0.1,3.3,0.3,4.5
		c0.2,1.2,0.4,2.1,0.8,2.9c0.4,0.7,0.9,1.2,1.5,1.5c0.6,0.3,1.4,0.5,2.2,0.5c0.6,0,1.1-0.1,1.6-0.4c0.5-0.3,1-0.7,1.4-1.2
		c0.4-0.5,0.7-1.2,0.9-2.1s0.4-1.8,0.4-3v-5.6h8v5.3c0,4.6-1.1,8-3.2,10.2C24.1,64.3,21,65.4,17.1,65.4z"/>
	<path class="st4" d="M35.6,3.9h8.5v10.9l-0.4,7.9c0.6-0.9,1.3-1.6,2-2.2c0.7-0.6,1.5-1,2.2-1.4c0.8-0.3,1.6-0.6,2.3-0.7
		c0.8-0.1,1.6-0.2,2.4-0.2c2.7,0,4.8,0.9,6.3,2.8c1.5,1.9,2.2,4.7,2.2,8.5v35.4h-8.5V29.8c0-2-0.3-3.5-0.9-4.2
		c-0.6-0.8-1.5-1.2-2.8-1.2c-0.9,0-1.7,0.3-2.6,0.9c-0.9,0.6-1.6,1.4-2.3,2.4v37.3h-8.5V3.9z"/>
	<path class="st4" d="M76.3,65.4c-1.4,0-2.7-0.3-3.8-0.9c-1.1-0.6-2-1.3-2.8-2.3c-0.8-1-1.3-2.2-1.7-3.5c-0.4-1.4-0.6-2.8-0.6-4.4
		c0-1.9,0.2-3.6,0.7-5.1s1.2-2.8,2.1-4c0.9-1.2,2-2.3,3.4-3.2c1.3-1,2.9-1.9,4.7-2.8c0.9-0.4,1.8-0.9,2.9-1.3c1.1-0.4,2-0.8,2.8-1.1
		v-6.1c0-0.9,0-1.7-0.1-2.5c-0.1-0.8-0.2-1.4-0.5-2c-0.3-0.6-0.6-1-1.2-1.3c-0.5-0.3-1.2-0.5-2.1-0.5c-0.6,0-1.2,0.1-1.8,0.3
		c-0.6,0.2-1.1,0.6-1.5,1.1c-0.4,0.5-0.8,1.3-1,2.1c-0.3,0.9-0.4,2-0.4,3.3v2h-6.5c-0.2-0.9-0.4-1.7-0.5-2.4
		c-0.1-0.7-0.2-1.4-0.2-2.2c0-1.7,0.3-3.2,0.9-4.6c0.6-1.3,1.4-2.4,2.5-3.3c1.1-0.9,2.3-1.6,3.8-2c1.5-0.5,3.1-0.7,4.9-0.7
		c2.3,0,4.2,0.3,5.7,0.8c1.5,0.5,2.7,1.3,3.6,2.3c0.9,1,1.5,2.3,1.9,3.8c0.4,1.5,0.6,3.3,0.6,5.3v34.6h-6.3l-0.6-4
		c-0.9,1.3-2.1,2.4-3.7,3.2C80,65,78.3,65.4,76.3,65.4z M80.1,58.9c0.7,0,1.4-0.2,2.1-0.6c0.7-0.4,1.3-0.8,1.7-1.4V42.5
		c-0.4,0.2-1,0.4-1.5,0.6c-0.6,0.2-1.2,0.6-1.8,1c-0.6,0.4-1.2,0.8-1.8,1.4c-0.6,0.5-1.1,1.2-1.6,1.9c-0.5,0.7-0.8,1.6-1.1,2.5
		c-0.3,0.9-0.4,2-0.4,3.1c0,1.8,0.3,3.2,1,4.3C77.4,58.3,78.5,58.9,80.1,58.9z"/>
	<path class="st4" d="M100.9,18.7h6.2l0.7,4.7c0.9-1.7,2-3.1,3.2-3.9c1.2-0.9,2.5-1.3,3.7-1.3c2.4,0,4.2,0.8,5.4,2.2
		c1.2,1.5,1.7,3.7,1.7,6.7c0,0.4,0,0.8-0.1,1.4c-0.1,0.5-0.1,1.1-0.2,1.6s-0.2,1.1-0.4,1.7c-0.1,0.6-0.3,1.1-0.5,1.6H115v-4.3
		c0-0.9-0.1-1.7-0.2-2.3c-0.1-0.6-0.3-1.1-0.5-1.5c-0.2-0.4-0.4-0.6-0.7-0.8s-0.6-0.2-0.9-0.2c-0.7,0-1.3,0.2-1.9,0.7s-1,1-1.4,1.8
		v38.1h-8.5V18.7z"/>
	<path class="st4" d="M127.5,3.9h8.5v61h-8.5V3.9z"/>
	<path class="st4" d="M149.4,12.1c-1.6,0-2.8-0.5-3.7-1.4c-0.9-0.9-1.4-2.3-1.4-4.1c0-1,0.1-1.9,0.4-2.5c0.2-0.7,0.6-1.2,1-1.6
		c0.4-0.4,1-0.7,1.6-0.9c0.6-0.2,1.3-0.3,2.1-0.3c1.7,0,3,0.4,3.8,1.3c0.9,0.8,1.3,2.2,1.3,4.1c0,1.7-0.4,3.1-1.3,4.1
		C152.3,11.6,151.1,12.1,149.4,12.1z M145,18.7h8.5v46.2H145V18.7z"/>
	<path class="st4" d="M173.5,65.4c-2,0-3.8-0.4-5.3-1.1c-1.5-0.7-2.8-1.9-3.9-3.5c-1.1-1.6-1.8-3.6-2.4-6c-0.5-2.4-0.8-5.4-0.8-8.8
		v-8.7c0-2.9,0.2-5.4,0.7-7.5c0.4-2.1,1-3.8,1.7-5.3s1.5-2.5,2.4-3.4c0.9-0.8,1.9-1.5,2.9-1.9c1-0.4,2-0.7,2.9-0.8s1.9-0.2,2.7-0.2
		c1.5,0,3,0.2,4.4,0.7c1.4,0.5,2.7,1.2,3.7,2.3c1.1,1.1,1.9,2.6,2.6,4.4c0.6,1.9,1,4.2,1,6.9c0,0.9,0,1.9-0.1,2.9
		c-0.1,1-0.1,1.9-0.2,2.8c-0.1,0.9-0.2,1.8-0.4,2.7s-0.3,1.7-0.5,2.4h-15.3v4.7c0,2,0.1,3.7,0.2,5.1c0.2,1.4,0.4,2.5,0.8,3.3
		s0.9,1.4,1.5,1.8c0.6,0.4,1.4,0.6,2.4,0.6c0.5,0,1-0.1,1.5-0.3c0.5-0.2,0.9-0.6,1.3-1.1s0.7-1.1,0.9-2c0.2-0.8,0.3-1.8,0.3-3V51
		h7.1v1.8c0,4.4-1,7.6-3.1,9.6S177.4,65.4,173.5,65.4z M178.2,37.7c0-0.2,0-0.6,0.1-1c0-0.4,0-0.8,0.1-1.3s0-0.9,0-1.3
		c0-0.4,0-0.8,0-1.1c0-3-0.4-5.2-1.1-6.6c-0.7-1.3-1.8-2-3.2-2c-0.7,0-1.4,0.2-1.9,0.5c-0.6,0.3-1,0.9-1.4,1.7
		c-0.4,0.8-0.6,1.9-0.8,3.2c-0.2,1.3-0.3,3-0.3,5v2.8H178.2z"/>
	<path class="st4" d="M208.5,7.6h8.7c1.1,0,2.3,0,3.6,0.2c1.3,0.1,2.6,0.3,3.9,0.7c1.3,0.4,2.6,0.9,3.8,1.7c1.2,0.8,2.3,1.8,3.2,3.1
		c0.9,1.3,1.7,2.9,2.3,4.9s0.9,4.4,0.9,7.2v2c0,3.1-0.3,5.7-0.8,7.9c-0.5,2.2-1.2,4-2.1,5.5c-0.9,1.5-1.9,2.7-3,3.6s-2.3,1.6-3.6,2
		c-1.2,0.5-2.5,0.8-3.8,0.9c-1.3,0.1-2.5,0.2-3.6,0.2h-0.8v17.4h-8.7V7.6z M217.6,41.1c1.6,0,2.9-0.2,4-0.7c1.1-0.5,1.9-1.2,2.6-2.1
		c0.6-1,1.1-2.2,1.4-3.8s0.4-3.4,0.4-5.5v-5.2c0-1.7-0.1-3.2-0.4-4.4c-0.2-1.2-0.7-2.3-1.3-3.1c-0.6-0.8-1.5-1.4-2.6-1.8
		c-1.1-0.4-2.4-0.6-4.1-0.6h-0.4v27.1H217.6z"/>
	<path class="st4" d="M247.3,65.4c-1.4,0-2.7-0.3-3.8-0.9s-2-1.3-2.8-2.3c-0.8-1-1.3-2.2-1.7-3.5c-0.4-1.4-0.6-2.8-0.6-4.4
		c0-1.9,0.2-3.6,0.7-5.1s1.2-2.8,2.1-4c0.9-1.2,2-2.3,3.4-3.2s2.9-1.9,4.7-2.8c0.9-0.4,1.8-0.9,2.9-1.3c1.1-0.4,2-0.8,2.8-1.1v-6.1
		c0-0.9,0-1.7-0.1-2.5c-0.1-0.8-0.2-1.4-0.5-2c-0.3-0.6-0.6-1-1.2-1.3s-1.2-0.5-2.1-0.5c-0.6,0-1.2,0.1-1.8,0.3
		c-0.6,0.2-1.1,0.6-1.5,1.1s-0.8,1.3-1,2.1c-0.3,0.9-0.4,2-0.4,3.3v2h-6.5c-0.2-0.9-0.4-1.7-0.5-2.4c-0.1-0.7-0.2-1.4-0.2-2.2
		c0-1.7,0.3-3.2,0.9-4.6c0.6-1.3,1.4-2.4,2.5-3.3c1.1-0.9,2.3-1.6,3.8-2c1.5-0.5,3.1-0.7,4.9-0.7c2.3,0,4.2,0.3,5.7,0.8
		s2.7,1.3,3.6,2.3c0.9,1,1.5,2.3,1.9,3.8c0.4,1.5,0.6,3.3,0.6,5.3v34.6h-6.3l-0.6-4c-0.9,1.3-2.1,2.4-3.7,3.2
		C251,65,249.3,65.4,247.3,65.4z M251.1,58.9c0.7,0,1.4-0.2,2.1-0.6s1.3-0.8,1.7-1.4V42.5c-0.4,0.2-1,0.4-1.5,0.6
		c-0.6,0.2-1.2,0.6-1.8,1c-0.6,0.4-1.2,0.8-1.8,1.4c-0.6,0.5-1.1,1.2-1.6,1.9c-0.5,0.7-0.8,1.6-1.1,2.5c-0.3,0.9-0.4,2-0.4,3.1
		c0,1.8,0.3,3.2,1,4.3C248.4,58.3,249.5,58.9,251.1,58.9z"/>
	<path class="st4" d="M271.9,18.7h6.2l0.7,4.7c0.9-1.7,2-3.1,3.2-3.9c1.2-0.9,2.5-1.3,3.7-1.3c2.4,0,4.2,0.8,5.4,2.2
		c1.2,1.5,1.7,3.7,1.7,6.7c0,0.4,0,0.8-0.1,1.4c-0.1,0.5-0.1,1.1-0.2,1.6s-0.2,1.1-0.4,1.7s-0.3,1.1-0.5,1.6H286v-4.3
		c0-0.9-0.1-1.7-0.2-2.3c-0.1-0.6-0.3-1.1-0.5-1.5c-0.2-0.4-0.4-0.6-0.7-0.8s-0.6-0.2-0.9-0.2c-0.7,0-1.3,0.2-1.9,0.7s-1,1-1.4,1.8
		v38.1h-8.5V18.7z"/>
	<path class="st4" d="M298.5,3.9h8.5V39h0.3l9.3-20.3h8.2l-10.3,21.1l11.2,25.1H317L307.3,42H307v22.9h-8.5V3.9z"/>
	<path class="st4" d="M341.1,65.4c-2,0-3.8-0.4-5.3-1.1c-1.5-0.7-2.8-1.9-3.9-3.5c-1.1-1.6-1.8-3.6-2.4-6c-0.5-2.4-0.8-5.4-0.8-8.8
		v-8.7c0-2.9,0.2-5.4,0.7-7.5s1-3.8,1.7-5.3c0.7-1.4,1.5-2.5,2.4-3.4c0.9-0.8,1.9-1.5,2.9-1.9s2-0.7,2.9-0.8c1-0.1,1.9-0.2,2.7-0.2
		c1.5,0,3,0.2,4.4,0.7c1.4,0.5,2.7,1.2,3.7,2.3c1.1,1.1,1.9,2.6,2.6,4.4c0.6,1.9,1,4.2,1,6.9c0,0.9,0,1.9-0.1,2.9
		c-0.1,1-0.1,1.9-0.2,2.8c-0.1,0.9-0.2,1.8-0.4,2.7s-0.3,1.7-0.5,2.4h-15.3v4.7c0,2,0.1,3.7,0.2,5.1c0.2,1.4,0.4,2.5,0.8,3.3
		s0.9,1.4,1.5,1.8s1.4,0.6,2.4,0.6c0.5,0,1-0.1,1.5-0.3c0.5-0.2,0.9-0.6,1.3-1.1s0.7-1.1,0.9-2s0.3-1.8,0.3-3V51h7.1v1.8
		c0,4.4-1,7.6-3.1,9.6S345.1,65.4,341.1,65.4z M345.8,37.7c0-0.2,0-0.6,0.1-1c0-0.4,0-0.8,0-1.3c0-0.4,0-0.9,0-1.3
		c0-0.4,0-0.8,0-1.1c0-3-0.4-5.2-1.1-6.6c-0.7-1.3-1.8-2-3.2-2c-0.7,0-1.4,0.2-1.9,0.5c-0.6,0.3-1,0.9-1.4,1.7
		c-0.4,0.8-0.6,1.9-0.8,3.2c-0.2,1.3-0.3,3-0.3,5v2.8H345.8z"/>
	<path class="st4" d="M360.9,18.7h6.2l0.7,4.7c0.9-1.7,2-3.1,3.2-3.9c1.2-0.9,2.5-1.3,3.7-1.3c2.4,0,4.2,0.8,5.4,2.2
		c1.2,1.5,1.7,3.7,1.7,6.7c0,0.4,0,0.8-0.1,1.4s-0.1,1.1-0.2,1.6s-0.2,1.1-0.4,1.7s-0.3,1.1-0.5,1.6h-5.9v-4.3
		c0-0.9-0.1-1.7-0.2-2.3c-0.1-0.6-0.3-1.1-0.5-1.5c-0.2-0.4-0.4-0.6-0.7-0.8c-0.3-0.1-0.6-0.2-0.9-0.2c-0.7,0-1.3,0.2-1.9,0.7
		s-1,1-1.4,1.8v38.1h-8.5V18.7z"/>
</g>
</svg>
